<?xml version="1.0" encoding="UTF-8" standalone="no"?>
<svg
   id="Layer_1"
   data-name="Layer 1"
   viewBox="0 0 767.24409 188.38299"
   version="1.1"
   sodipodi:docname="powered-by-lancer.svg"
   width="203mm"
   height="49.842999mm"
   inkscape:version="1.3.2 (091e20e, 2023-11-25)"
   xmlns:inkscape="http://www.inkscape.org/namespaces/inkscape"
   xmlns:sodipodi="http://sodipodi.sourceforge.net/DTD/sodipodi-0.dtd"
   xmlns="http://www.w3.org/2000/svg"
   xmlns:svg="http://www.w3.org/2000/svg">
  <defs
     id="defs19" />
  <sodipodi:namedview
     id="namedview19"
     pagecolor="#ffffff"
     bordercolor="#000000"
     borderopacity="0.25"
     inkscape:showpageshadow="2"
     inkscape:pageopacity="0.0"
     inkscape:pagecheckerboard="0"
     inkscape:deskcolor="#d1d1d1"
     showgrid="false"
     inkscape:zoom="1.1274117"
     inkscape:cx="396.03987"
     inkscape:cy="102.44704"
     inkscape:window-width="1392"
     inkscape:window-height="1212"
     inkscape:window-x="62"
     inkscape:window-y="25"
     inkscape:window-maximized="0"
     inkscape:current-layer="Layer_1"
     inkscape:document-units="mm" />
  <path
     d="m 539.51141,2.283262 a 2.9020388,2.9020388 0 0 1 2.45693,-1.49552985 c 1.26409,-0.10682268 2.52817,-0.24925405 3.79224,-0.24925405 h 53.85686 a 15.293568,15.293568 0 0 1 3.11568,0.32047031 3.1512937,3.1512937 0 0 1 2.90204,3.20470489 23.80384,23.80384 0 0 1 0,3.3827449 c -0.10681,1.7803924 0,3.7566278 0,5.6438428 0,4.379764 0,8.741729 -0.32047,13.103683 a 19.673331,19.673331 0 0 0 0.33828,5.341179 4.0058818,4.0058818 0 0 0 2.74179,3.080081 10.557725,10.557725 0 0 0 3.32934,0.58752 q 26.27859,0 52.53938,0 a 9.0799989,9.0799989 0 0 0 3.56077,-0.676544 5.1631366,5.1631366 0 0 0 2.97326,-4.611218 144.38979,144.38979 0 0 0 0.17805,-14.688231 15.044312,15.044312 0 0 0 -0.96143,-5.9109014 26.492232,26.492232 0 0 0 -3.06227,-4.5043909 l -1.22847,-1.7803924 a 1.7803919,1.7803919 0 0 1 1.19286,-2.97325463 14.029489,14.029489 0 0 1 2.72399,-0.3026665 h 55.83311 a 9.1156067,9.1156067 0 0 1 2.18987,0.28486271 2.7952154,2.7952154 0 0 1 2.24329,2.99105842 5.0741171,5.0741171 0 0 1 -0.12462,0.9079995 c -0.53411,1.9406276 -1.05043,3.8812551 -1.60235,5.8218817 -1.08604,3.8100385 -2.18988,7.6378815 -3.31153,11.4479245 -0.55193,1.887212 -1.17507,3.756625 -1.78039,5.643838 a 12.711999,12.711999 0 0 0 -0.58753,4.771446 3.5607839,3.5607839 0 0 0 2.47474,3.097892 11.323293,11.323293 0 0 0 4.48659,0.729959 h 32.84823 a 19.370664,19.370664 0 0 1 2.49255,0 8.9019597,8.9019597 0 0 1 2.36793,0.640937 1.6735684,1.6735684 0 0 1 0.83677,2.421336 3.7388231,3.7388231 0 0 1 -3.45395,2.403527 c -2.26111,0.178038 -4.54,0.267062 -6.8011,0.267062 h -46.11216 a 36.124152,36.124152 0 0 1 -4.1661,-0.284871 2.7418036,2.7418036 0 0 1 -2.38573,-3.418348 c 0.32046,-1.531137 0.71215,-3.062273 1.13946,-4.575611 0.55191,-1.976235 1.15724,-3.952461 1.78038,-5.928697 q 1.28188,-4.593419 2.54596,-9.20463 a 6.2847835,6.2847835 0 0 0 0.19585,-1.157255 4.2551368,4.2551368 0 0 0 -4.21954,-4.824862 96.693087,96.693087 0 0 0 -11.80398,-0.231451 14.243136,14.243136 0 0 0 -3.22252,0.462901 4.3263523,4.3263523 0 0 0 -3.36494,3.169098 11.03843,11.03843 0 0 0 -0.48071,2.95545 c 0,5.590428 0,11.198668 0,16.806898 a 14.136311,14.136311 0 0 1 -0.32047,3.115689 3.1156859,3.1156859 0 0 1 -2.75961,2.617173 24.925486,24.925486 0 0 1 -3.25811,0.249253 q -35.60784,0 -71.32252,0 c -2.26108,0 -4.52218,0.373885 -6.78328,0.427301 a 32.545564,32.545564 0 0 1 -7.21058,-0.195847 4.201725,4.201725 0 0 1 -3.68542,-3.25812 c -0.55192,-2.385717 -1.08604,-4.771445 -1.58455,-7.121566 -0.96141,-4.575601 -1.78038,-9.169019 -2.86643,-13.72682 a 5.7150581,5.7150581 0 0 0 -4.71804,-4.700234 16.023527,16.023527 0 0 0 -2.59937,-0.302666 q -5.448,0 -10.896,0 a 23.661408,23.661408 0 0 0 -3.38274,0.32047 4.6646269,4.6646269 0 0 0 -3.86346,3.827843 11.608156,11.608156 0 0 0 -0.28486,2.723999 c 0,5.163141 0,10.326271 0,15.50721 0,0.872401 0,1.7804 0,2.617182 a 3.756627,3.756627 0 0 1 -4.04148,4.14831 c -1.05043,0 -2.10088,0 -3.1513,0 h -76.69929 c -2.79521,0 -5.59043,0.231454 -8.38565,0.178038 a 26.705879,26.705879 0 0 1 -4.25513,-0.60533 2.5815683,2.5815683 0 0 1 -1.8694,-1.513337 12.729803,12.729803 0 0 1 -1.06825,-2.79521 c -1.08603,-5.18094 -2.08305,-10.361879 -3.15129,-15.542828 a 40.949015,40.949015 0 0 0 -1.28188,-4.664623 5.6438424,5.6438424 0 0 0 -5.71506,-3.970274 c -4.68243,0 -9.36486,0 -14.06509,0 a 7.6200775,7.6200775 0 0 0 -2.88424,0.747764 4.5399994,4.5399994 0 0 0 -2.52815,4.023686 q -0.23145,2.35012 -0.26707,4.70023 c 0,3.774435 0,7.531061 0,11.305496 0,0.997022 0.17805,1.994033 0.19584,2.991056 a 7.3530187,7.3530187 0 0 1 -0.80116,4.433179 3.1512937,3.1512937 0 0 1 -2.15428,1.388707 16.646664,16.646664 0 0 1 -3.11568,0.30266 H 207.3971 a 26.136153,26.136153 0 0 1 -3.56079,-0.284861 3.5607839,3.5607839 0 0 1 -2.79521,-2.79521 22.148076,22.148076 0 0 1 -0.28486,-3.25812 c 0,-5.946507 0,-11.910823 0,-17.803921 a 6.409411,6.409411 0 0 0 -1.12166,-3.721019 3.8100387,3.8100387 0 0 0 -2.40352,-1.780391 22.165879,22.165879 0 0 0 -3.86345,-0.427295 c -3.32934,0 -6.65867,0 -9.9702,0 a 19.477488,19.477488 0 0 0 -3.38274,0.373883 4.6112151,4.6112151 0 0 0 -3.97028,4.130509 14.385567,14.385567 0 0 0 -0.23144,2.474748 q 0,9.45388 0,18.90776 a 4.0414896,4.0414896 0 0 1 -2.22549,3.738827 1.7803919,1.7803919 0 0 1 -0.71216,0.267052 c -1.26408,0.106822 -2.52817,0.267062 -3.79224,0.267062 H 6.426452 A 15.453802,15.453802 0 0 1 1.6550013,41.612121 4.1305093,4.1305093 0 0 1 -0.81974308,39.208592 1.9228233,1.9228233 0 0 1 0.71139325,36.484587 14.243136,14.243136 0 0 1 3.1683348,36.235334 c 9.2046252,0 18.3914482,0 27.5960752,0 a 18.070978,18.070978 0 0 0 3.560783,-0.373884 4.8248621,4.8248621 0 0 0 4.148312,-4.344156 16.967135,16.967135 0 0 0 0.231453,-2.332312 c 0,-4.682433 0,-9.382664 0,-14.065095 A 11.625959,11.625959 0 0 0 37.227231,9.2089858 32.794819,32.794819 0 0 0 35.233193,6.4493788 C 34.610057,5.6125945 33.933507,4.8114187 33.328174,3.9568306 a 2.3323134,2.3323134 0 0 1 -0.373882,-1.0860394 1.5845488,1.5845488 0 0 1 1.54894,-2.01184279 17.430037,17.430037 0 0 1 2.723999,-0.26705892 q 6.035529,0 12.088862,0 a 27.097565,27.097565 0 0 1 3.382745,0.28486271 3.970274,3.970274 0 0 1 2.813018,3.4361563 12.99686,12.99686 0 0 1 0,1.4421172 c 0,8.1007823 0,16.2015663 0,24.3023473 a 9.0978028,9.0978028 0 0 0 0.267061,2.189881 4.7892543,4.7892543 0 0 0 4.771449,3.774435 c 2.617176,0.178038 5.234352,0.249254 7.851528,0.249254 q 40.806586,0 81.577566,0 a 28.290428,28.290428 0 0 0 5.19875,-0.534115 4.0770976,4.0770976 0 0 0 3.34713,-3.151297 15.186743,15.186743 0 0 0 0.48071,-3.347133 c 0,-7.495451 0,-14.973099 0,-22.468549 a 27.168781,27.168781 0 0 1 0.32046,-3.3827439 3.5607839,3.5607839 0 0 1 3.43616,-3.06227452 c 1.78039,-0.12462757 3.56078,-0.23145133 5.34118,-0.24925511 6.53403,0 13.05027,0 19.5843,0 6.53405,0 13.45978,0 20.20746,0 1.69137,0 3.40054,0.12462754 5.09192,0.2670589 a 3.2937251,3.2937251 0 0 1 3.25812,2.68839193 10.326273,10.326273 0 0 1 0.28486,2.332313 c 0,7.7090987 0,15.4181917 0,23.1450987 a 16.39741,16.39741 0 0 0 0.32046,3.24031 5.1631366,5.1631366 0 0 0 4.9851,4.237334 c 6.72988,0.498505 13.47756,0.178037 20.20745,0.213645 13.74463,0 27.50706,0 41.25168,0 a 21.631763,21.631763 0 0 0 4.54,-0.498507 4.6646269,4.6646269 0 0 0 3.82785,-3.988079 15.008705,15.008705 0 0 0 0.23145,-2.350122 c 0,-4.148308 0,-8.314426 0,-12.462739 a 11.661567,11.661567 0 0 0 -2.81303,-7.8337255 29.180623,29.180623 0 0 1 -2.61718,-3.5607839 1.7803919,1.7803919 0 0 1 1.03264,-2.7774108 16.433018,16.433018 0 0 1 3.56078,-0.5519216 c 2.49255,0 4.98511,0 7.47765,0 a 4.8426661,4.8426661 0 0 1 5.21655,3.6676075 c 1.12165,3.2759212 2.04745,6.6052543 3.06227,9.9167823 0.39169,1.281883 0.74777,2.599373 1.12165,3.88125 0.908,3.062283 1.78039,6.142354 2.74181,9.186828 a 22.07686,22.07686 0 0 0 1.40649,3.649803 6.2847835,6.2847835 0 0 0 5.34118,3.560788 c 4.66464,0.409483 9.34706,0.142431 14.0295,0.195837 a 19.174821,19.174821 0 0 0 3.75661,-0.462898 4.7180387,4.7180387 0 0 0 3.81006,-4.041497 16.504233,16.504233 0 0 0 0.30266,-3.38274 q 0,-6.035531 0,-12.071056 c 0,-2.67059 -0.17805,-5.341176 -0.19584,-7.9939604 a 15.418194,15.418194 0 0 1 0.30267,-3.2581174 3.3115289,3.3115289 0 0 1 2.54595,-2.688392 5.8040777,5.8040777 0 0 1 1.54894,-0.2136464 c 3.56078,0 7.01475,0 10.52211,0 a 11.358901,11.358901 0 0 1 2.18989,0.2848627 1.5133331,1.5133331 0 0 1 1.22848,1.7803914 4.4509797,4.4509797 0 0 1 -1.10384,2.332314 l -2.20769,2.7596071 a 11.946429,11.946429 0 0 0 -2.43915,7.121567 c 0,0.925805 0,1.780394 0,2.759612 0,3.24031 -0.19583,6.462822 -0.23144,9.703132 a 16.682272,16.682272 0 0 0 0.33826,3.115689 4.9672934,4.9672934 0 0 0 4.9495,4.077094 c 2.58156,0.142431 5.14534,0.249254 7.7269,0.267062 q 21.47153,0 42.96087,0 a 23.020467,23.020467 0 0 0 4.53999,-0.498517 4.6646269,4.6646269 0 0 0 3.91685,-4.575599 38.598896,38.598896 0 0 0 0.26707,-4.308548 q 0,-4.593419 0,-9.186826 c 0,-1.620158 0,-3.240314 -0.26707,-4.842666 a 9.2224303,9.2224303 0 0 0 -1.78038,-4.326353 c -0.97922,-1.3352935 -2.02964,-2.6171756 -2.99106,-3.9702741 a 5.0741171,5.0741171 0 0 1 -0.65874,-1.4065097 1.31749,1.31749 0 0 1 0.58752,-1.6023524 4.8426661,4.8426661 0 0 1 2.45694,-0.80117676 c 0.51631,0 1.05043,0 1.56676,0 h 56.34939 a 10.290664,10.290664 0 0 1 1.95842,0.19584376 3.5607839,3.5607839 0 0 1 3.15131,3.5607838 c 0,2.0830579 -0.089,4.1839206 -0.16023,6.2847824 0,0.427295 0,0.872393 0,1.317491 0,2.670587 0,5.341176 0,8.011764 0,2.670591 -0.19585,5.750662 -0.23146,8.634895 a 10.682352,10.682352 0 0 0 0.4095,2.706198 4.4153721,4.4153721 0 0 0 3.41834,3.275928 12.03545,12.03545 0 0 0 2.86644,0.356075 h 55.42359 a 11.661567,11.661567 0 0 0 2.84864,-0.338276 c 2.68838,-0.694353 3.6676,-2.136466 4.1127,-5.127523 a 5.6972542,5.6972542 0 0 0 0,-0.783377 q 0,-7.121568 0,-14.243135 A 10.148234,10.148234 0 0 0 543.81995,9.1377707 32.047055,32.047055 0 0 0 541.07814,5.5769868 6.8545089,6.8545089 0 0 1 539.51141,2.283262 Z"
     id="path1"
     style="stroke-width:1.78039" />
  <path
     d="m 357.59096,186.07312 -0.78337,1.47773 a 24.925486,24.925486 0 0 1 -3.13349,0.53411 c -1.78039,0 -3.68541,0 -5.51921,0 a 43.512779,43.512779 0 0 1 -4.80707,-0.4807 4.2907445,4.2907445 0 0 1 -3.45395,-2.97326 c -0.76557,-2.08305 -1.47773,-4.1839 -2.17209,-6.30257 q -1.78039,-5.34119 -3.41835,-10.68237 c -0.67655,-2.13646 -1.29969,-4.27294 -1.95842,-6.3916 -0.83679,-2.6706 -1.67357,-5.34118 -2.52816,-7.99397 -0.64095,-2.08305 -1.29969,-4.16611 -1.95843,-6.24917 -0.85459,-2.70619 -1.7804,-5.34117 -2.58157,-8.11859 -0.80119,-2.7774 -1.78039,-5.50141 -2.58157,-8.24322 l -2.91985,-9.48948 c -0.51631,-1.62016 -0.99702,-3.25812 -1.51333,-4.87828 l -2.08306,-6.62305 c -1.15725,-3.70322 -2.26109,-7.44203 -3.56078,-11.127455 -1.29969,-3.68541 -2.36792,-7.121568 -3.66761,-10.522107 a 6.9079207,6.9079207 0 0 0 -1.95842,-3.204713 c -0.37389,-0.284861 -0.80119,-0.516316 -1.15726,-0.74776 a 3.0088624,3.0088624 0 0 0 -1.7804,2.083059 11.287684,11.287684 0 0 0 -0.51631,2.421326 c -0.14243,1.7804 -0.28486,3.560789 -0.28486,5.234356 0,21.186664 0.10682,42.391124 -0.089,63.577794 0,8.74172 0,17.50126 -0.19585,26.24299 a 5.3411758,5.3411758 0 0 1 -0.24925,1.67356 3.5607839,3.5607839 0 0 1 -3.15129,2.56377 75.826892,75.826892 0 0 1 -9.43608,0.23144 15.097723,15.097723 0 0 1 -2.33231,-0.26705 1.7803919,1.7803919 0 0 1 -1.53115,-2.42135 5.7684699,5.7684699 0 0 1 0.81898,-1.47772 c 0.78338,-1.08604 1.60236,-2.17207 2.45696,-3.22251 a 10.895999,10.895999 0 0 0 2.38571,-7.12156 c 0,-10.68236 0,-21.27569 0,-31.90462 q 0,-38.47427 0,-76.984152 a 24.088703,24.088703 0 0 1 0.28487,-3.382741 3.5607839,3.5607839 0 0 1 2.86643,-2.830828 7.6912931,7.6912931 0 0 1 1.54895,-0.195838 c 6.12454,0 12.26689,0 18.39144,0 a 5.0385091,5.0385091 0 0 1 4.21952,1.78039 6.5162344,6.5162344 0 0 1 1.01483,1.780389 c 0.55193,1.424313 1.03263,2.884235 1.45993,4.344156 q 2.58156,8.901957 5.16313,17.803924 2.58157,8.901957 5.34118,17.80391 c 0.69434,2.29671 1.47773,4.57562 2.2967,6.83671 a 10.04141,10.04141 0 0 0 2.13647,3.70322 c 0.80118,0.81897 1.17506,0.78337 1.99404,0 a 4.7536465,4.7536465 0 0 0 1.10385,-3.1335 126.21199,126.21199 0 0 0 0.24925,-12.711987 c 0,-2.848627 0.12463,-5.697254 0,-8.545881 -0.39168,-6.64087 -0.12463,-13.29953 -0.24925,-19.9404 0,-0.569721 -0.21365,-1.121643 -0.19586,-1.780389 0,-1.780388 0.089,-3.560778 0.28487,-5.216545 a 2.9020388,2.9020388 0 0 1 1.97624,-2.278906 4.8782739,4.8782739 0 0 1 1.63797,-0.445091 25.245957,25.245957 0 0 1 4.1839,0 4.0770976,4.0770976 0 0 1 3.95248,4.415371 c 0,0.516316 0,1.050429 0,1.566744 V 167.7707 c 0,1.44211 0,2.88424 0,4.32635 a 36.622662,36.622662 0 0 0 0.58753,5.05631 11.198666,11.198666 0 0 0 2.47474,4.29074 c 0.62314,0.83678 1.33529,1.62015 1.90503,2.49255 a 16.023527,16.023527 0 0 1 1.03262,2.13647 z"
     id="path2"
     style="stroke-width:1.78039" />
  <path
     d="m 215.46227,109.28482 c 0,15.72086 0.10683,31.44172 0,47.16258 0,5.10972 -0.14243,10.23725 -0.14243,15.34698 a 15.8989,15.8989 0 0 0 0.72997,5.69725 8.9019597,8.9019597 0 0 0 0.97921,1.97623 c 0.9436,1.2997 2.01184,2.51036 2.97326,3.82785 a 9.7743517,9.7743517 0 0 1 1.15724,2.17208 c 0.30268,0.78338 0,1.22846 -0.67653,1.60235 a 3.3293329,3.3293329 0 0 1 -1.49554,0.4629 44.402975,44.402975 0 0 1 -5.34118,0.14244 57.132778,57.132778 0 0 0 -6.30259,-0.10683 c -1.31748,0 -2.61717,-0.12462 -3.91685,-0.28487 a 3.8812544,3.8812544 0 0 1 -3.5608,-3.93466 c 0,-0.78338 0,-1.56674 0,-2.36793 q 0,-36.44461 0,-72.90705 a 15.257959,15.257959 0 0 0 -0.71215,-5.34117 2.7418036,2.7418036 0 0 0 -3.95247,-1.78039 10.255058,10.255058 0 0 0 -2.67058,1.78039 q -6.65867,6.53405 -13.21051,13.1927 a 9.7565478,9.7565478 0 0 0 -3.11569,6.85452 c 0,2.22549 -0.21365,4.45099 -0.21365,6.67647 q 0,25.69105 0,51.3643 a 19.922586,19.922586 0 0 1 -0.24925,3.25812 3.2937251,3.2937251 0 0 1 -3.47177,3.08008 c -0.78336,0 -1.58455,0 -2.36792,0 -3.56078,0 -7.264,0 -10.89599,0 a 30.266663,30.266663 0 0 1 -3.79224,-0.28485 1.9762351,1.9762351 0 0 1 -1.53113,-3.31154 25.263762,25.263762 0 0 1 2.22548,-2.91984 11.483529,11.483529 0 0 0 3.04447,-8.27883 c 0,-0.56972 0,-1.13945 0,-1.78039 0.56973,-35.83929 0,-71.69638 0.26706,-107.55347 0,-0.997024 0.19584,-1.994046 0.21365,-3.008866 a 3.7210191,3.7210191 0 0 1 3.56078,-3.471766 c 3.11568,0 6.21356,0 9.32925,0 a 3.5607839,3.5607839 0 0 1 3.56079,3.560779 29.323055,29.323055 0 0 1 0.24925,3.560789 c 0,9.45388 0,18.907759 0,28.379447 a 28.308232,28.308232 0 0 0 0.28487,2.991058 3.5607839,3.5607839 0 0 0 1.49553,2.36792 1.9762351,1.9762351 0 0 0 1.78038,0.356075 7.1215678,7.1215678 0 0 0 3.1513,-1.780389 q 5.34118,-5.341178 10.78918,-10.539916 c 1.24628,-1.228477 2.43913,-2.51035 3.56078,-3.84565 a 10.059215,10.059215 0 0 0 2.2789,-5.768468 c 0.4273,-4.807055 0.089,-9.61412 0.23146,-14.421174 a 11.216469,11.216469 0 0 1 0.37388,-2.314512 2.9020388,2.9020388 0 0 1 2.52815,-2.172075 14.58141,14.58141 0 0 1 2.33232,-0.231453 c 1.78038,0 3.68541,0 5.51921,0 a 18.676311,18.676311 0 0 1 2.20769,0.267061 2.8486271,2.8486271 0 0 1 2.47475,2.385719 12.818822,12.818822 0 0 1 0.32046,2.848627 q 0,22.593179 0,45.186344 v 1.78039 z"
     id="path3"
     style="stroke-width:1.78039" />
  <path
     d="m 687.60441,151.76496 c 0,9.57852 0,19.17483 0,28.75334 a 22.165879,22.165879 0 0 1 -0.30267,3.25811 3.8278426,3.8278426 0 0 1 -3.81004,3.00887 c -0.39168,0 -0.78336,0 -1.17506,0 -3.56078,0 -7.12157,0 -10.68235,0 a 25.156939,25.156939 0 0 1 -3.25811,-0.28486 1.7803919,1.7803919 0 0 1 -1.38871,-2.97326 c 0.69435,-1.15725 1.47773,-2.2789 2.18988,-3.41835 a 9.934587,9.934587 0 0 0 1.60235,-4.93169 c 0.51632,-11.19865 0.10682,-22.39733 0.21364,-33.59598 0,-4.9139 0,-9.80998 0,-14.70605 0,-4.20173 0,-8.38565 0,-12.58738 0,-4.20172 0,-8.72391 0,-13.08588 0,-4.361951 0,-8.670499 0,-13.014654 V 75.047875 c 0,-4.326346 0,-8.670502 0,-12.996859 a 11.501332,11.501332 0 0 1 0.26707,-2.599375 3.1334897,3.1334897 0 0 1 2.59938,-2.439134 11.412312,11.412312 0 0 1 2.3323,-0.249253 c 1.92283,0 3.86345,0 5.78628,0 a 19.388468,19.388468 0 0 1 2.47475,0.231454 3.2581173,3.2581173 0 0 1 2.7418,2.652781 11.750587,11.750587 0 0 1 0.32047,2.848627 c 0,2.634981 0,5.341178 0,7.887135 0,2.225489 0.10682,4.45098 0.30267,6.676469 a 12.071057,12.071057 0 0 0 0.80118,3.026674 1.4243136,1.4243136 0 0 0 2.58156,0.427291 10.878196,10.878196 0 0 0 2.04745,-3.916865 c 1.22847,-3.560778 2.31451,-7.246199 3.45396,-10.878193 0.56973,-1.78039 1.15725,-3.667611 1.67358,-5.519216 a 4.7536465,4.7536465 0 0 1 4.6112,-3.560779 29.269644,29.269644 0 0 1 7.58448,0.213646 3.7744309,3.7744309 0 0 1 1.45992,0.516315 2.3323134,2.3323134 0 0 1 1.22846,2.421326 c -0.16023,0.925807 -0.24924,1.905021 -0.4985,2.813019 -1.3175,4.771456 -2.68839,9.507296 -4.0593,14.243135 -0.55192,1.922829 -1.15725,3.84565 -1.78039,5.76847 a 18.94337,18.94337 0 0 0 -0.33828,9.970195 c 1.21067,4.967293 2.33232,9.952392 3.56078,14.937482 1.2819,5.34118 2.63499,10.68237 3.91687,16.02354 0.97921,4.07709 1.90502,8.17199 2.88424,12.24908 0.64094,2.63499 1.3353,5.34119 1.97623,7.88715 1.01482,4.25513 1.99404,8.51027 3.00887,12.76541 0.37388,1.58455 0.78336,3.13348 1.17505,4.71803 0.39169,1.58456 0.72997,3.04448 1.12165,4.57561 0.30267,1.13945 0.55193,2.29671 0.94361,3.40055 a 6.2135679,6.2135679 0 0 0 5.69724,4.32636 c 2.47475,0 4.9673,0.14243 7.45986,0.24925 a 7.5666657,7.5666657 0 0 1 1.78039,0.26706 c 1.78039,0.56972 2.02963,1.54894 1.58455,3.27592 a 9.1868223,9.1868223 0 0 1 -1.05044,2.24329 c -0.94361,1.62017 -1.90501,3.22251 -2.90203,4.80706 a 5.9999207,5.9999207 0 0 1 -5.21655,2.77742 c -5.34118,0.14243 -10.68237,0.19583 -16.13036,0.28486 a 4.4509797,4.4509797 0 0 1 -3.93466,-1.7804 7.1215678,7.1215678 0 0 1 -1.05043,-2.36791 c -0.96141,-4.04149 -1.78039,-8.10078 -2.724,-12.14228 q -1.06824,-4.75364 -2.10087,-9.47169 c -1.12163,-5.12752 -2.26109,-10.25505 -3.38273,-15.36478 -1.40653,-6.4094 -2.79522,-12.80102 -4.21954,-19.21043 -0.67654,-3.02666 -1.4065,-6.03552 -2.11867,-9.06219 a 6.0355287,6.0355287 0 0 0 -1.4243,-2.77741 2.7774113,2.7774113 0 0 0 -2.77742,-0.76557 5.3411758,5.3411758 0 0 0 -3.16909,2.17208 9.7743517,9.7743517 0 0 0 -1.88722,5.89309 c 0,9.77436 0,19.58432 0,29.30526 z"
     id="path4"
     style="stroke-width:1.78039" />
  <path
     d="m 539.4936,185.02269 a 4.8960778,4.8960778 0 0 1 1.26408,-2.88424 25.566429,25.566429 0 0 0 2.79521,-3.95247 10.842587,10.842587 0 0 0 1.13946,-5.19874 V 142.3823 q 0,-39.16862 0,-78.337239 c 0,-1.210669 0.14244,-2.421336 0.23145,-3.56079 a 3.4361565,3.4361565 0 0 1 3.56079,-3.400549 c 3.09788,-0.16023 6.21356,0 9.32924,0 a 3.5607839,3.5607839 0 0 1 3.56079,2.991057 16.878116,16.878116 0 0 1 0.35608,3.11569 c 0,5.483607 0,10.949408 0,16.415218 a 5.3411758,5.3411758 0 0 0 1.78038,4.344156 3.756627,3.756627 0 0 0 1.3175,0.801176 19.157017,19.157017 0 0 0 3.72101,0.640935 25.281566,25.281566 0 0 0 6.01774,-0.213645 6.0177247,6.0177247 0 0 0 4.84266,-4.433179 c 0.4629,-1.584543 0.80117,-3.222503 1.22847,-4.824854 a 5.8040777,5.8040777 0 0 1 2.65278,-4.005888 3.5607839,3.5607839 0 0 1 5.14534,1.994044 6.7476855,6.7476855 0 0 1 0.30267,2.06525 q 0,18.266824 0,36.515838 a 7.7803127,7.7803127 0 0 1 -0.48071,2.54597 3.1869015,3.1869015 0 0 1 -3.56078,2.08305 4.3619602,4.3619602 0 0 1 -3.82784,-2.95546 c -0.60534,-1.67356 -1.12165,-3.40053 -1.7804,-5.09192 a 7.0147441,7.0147441 0 0 0 -2.93765,-3.73881 6.5162344,6.5162344 0 0 0 -3.25812,-0.908 34.682035,34.682035 0 0 0 -6.92572,0.16024 5.3411758,5.3411758 0 0 0 -4.27294,4.27294 18.177802,18.177802 0 0 0 -0.30268,3.25812 q 0,27.18657 0,54.37316 a 11.697175,11.697175 0 0 0 0.28488,2.724 4.2907445,4.2907445 0 0 0 3.20471,3.5608 19.050194,19.050194 0 0 0 3.72101,0.58752 c 3.56078,0.089 7.28179,0 10.91381,0 a 16.539841,16.539841 0 0 0 3.09787,-0.37389 5.8040777,5.8040777 0 0 0 4.57562,-4.70023 c 0.72996,-3.06228 1.37089,-6.14236 2.02964,-9.22244 0.60533,-2.77741 1.19287,-5.55482 1.78039,-8.31441 0.16024,-0.72997 0.4629,-1.40652 0.69436,-2.11867 a 3.7388231,3.7388231 0 0 1 2.72399,-2.42135 13.869253,13.869253 0 0 1 7.12158,0 3.8812544,3.8812544 0 0 1 2.59937,3.86346 c 0.12462,3.56078 0.19583,6.97913 0.28486,10.4865 0.089,3.50738 0,7.33521 0.32047,11.00283 0.32047,3.6676 0,7.33521 0.21364,11.00281 a 3.4539603,3.4539603 0 0 1 -1.4065,3.09789 4.4687837,4.4687837 0 0 1 -1.60236,0.78337 18.177802,18.177802 0 0 1 -3.25811,0.30267 q -26.86612,0 -53.71442,0 a 29.394271,29.394271 0 0 1 -3.56079,-0.28486 2.8308232,2.8308232 0 0 1 -1.92283,-1.44212 z"
     id="path5"
     style="stroke-width:1.78039" />
  <path
     d="m 430.65824,114.59039 v 51.75598 a 28.219212,28.219212 0 0 0 0.24926,2.99106 5.3411758,5.3411758 0 0 0 5.34118,4.32635 h 8.1542 c 1.92281,0 3.86344,0 5.78626,0 a 5.8218815,5.8218815 0 0 0 6.08894,-4.43317 76.717089,76.717089 0 0 0 1.7804,-7.51325 c 0.83679,-3.75664 1.58454,-7.53105 2.47475,-11.26988 a 4.4509797,4.4509797 0 0 1 2.68839,-3.56079 9.3648616,9.3648616 0 0 1 2.2967,-0.4451 c 1.19287,0 2.36792,0 3.56078,0 a 4.1661171,4.1661171 0 0 1 4.46878,4.39758 q 0.16024,5.96431 0.28487,11.92862 c 0.089,3.75663 0,7.53106 0.32047,11.26988 0.21365,2.88423 0.14243,5.76847 0.19585,8.6527 0,3.40056 -1.7804,4.23734 -4.29075,4.48659 a 8.0295676,8.0295676 0 0 1 -0.92581,0 h -56.27819 a 10.682352,10.682352 0 0 1 -2.59938,-0.30265 c -1.69135,-0.42731 -2.11865,-1.60237 -1.13944,-3.08009 a 31.21027,31.21027 0 0 1 2.2255,-3.06227 11.323293,11.323293 0 0 0 2.49255,-7.54887 q 0,-13.40634 0,-26.7949 0,-41.62556 0,-83.268927 a 13.851448,13.851448 0 0 1 0.35607,-2.973258 3.0088624,3.0088624 0 0 1 2.49255,-2.403527 15.507214,15.507214 0 0 1 2.84863,-0.320469 c 1.78039,0 3.56078,0 5.34117,0 a 18.088782,18.088782 0 0 1 2.59938,0.249254 3.5607839,3.5607839 0 0 1 3.09787,3.560788 c 0,0.74776 0,1.495529 0,2.243289 v 51.3465 z"
     id="path6"
     style="stroke-width:1.78039" />
  <path
     d="m 38.66935,122.31728 q 0,-29.091596 0,-58.183205 a 33.969878,33.969878 0 0 1 0.284862,-3.792233 3.2759211,3.2759211 0 0 1 3.080078,-2.795211 45.168543,45.168543 0 0 1 9.560705,-0.213656 3.5607839,3.5607839 0 0 1 3.899059,3.738827 107.00155,107.00155 0 0 1 0.195842,11.946431 c 0,0.979213 0,1.976236 0,2.973258 0,0.997013 -0.17804,2.350112 -0.17804,3.560779 q 0,42.72941 0,85.45881 a 20.973018,20.973018 0 0 0 0.249256,2.99106 4.6468229,4.6468229 0 0 0 3.881253,4.09491 15.186743,15.186743 0 0 0 3.115688,0.33827 c 3.560783,0 7.121567,0 10.682355,0 a 20.67035,20.67035 0 0 0 3.560779,-0.4451 4.9138818,4.9138818 0 0 0 3.560788,-2.72399 21.48933,21.48933 0 0 0 1.78039,-5.62605 c 0.943606,-3.98807 1.780389,-8.01176 2.706196,-12.01765 a 19.192625,19.192625 0 0 1 0.74776,-2.3679 3.9168622,3.9168622 0 0 1 2.741804,-2.59938 7.6200775,7.6200775 0 0 1 3.899056,0 3.8990583,3.8990583 0 0 1 2.813019,4.11269 c 0.142442,3.72103 0.195846,7.42424 0.284871,11.14526 0.08904,3.72101 0,7.35303 0.320468,11.00283 0.249253,3.32932 0.124622,6.65866 0.178038,9.9702 a 7.6734893,7.6734893 0 0 1 -0.249253,1.78038 3.0622741,3.0622741 0 0 1 -3.044474,2.43914 c -1.780389,0.16024 -3.667601,0.26706 -5.483609,0.26706 -13.887048,0 -27.77411,0 -41.643364,0 a 23.145095,23.145095 0 0 1 -4.397567,-0.60533 2.6883918,2.6883918 0 0 1 -2.136471,-2.52815 26.011527,26.011527 0 0 1 -0.284862,-3.91687 Q 38.66935,151.28426 38.66935,122.31728 Z"
     id="path7"
     style="stroke-width:1.78039" />
</svg>
